<?xml version="1.0" standalone="no"?>
<!DOCTYPE svg PUBLIC "-//W3C//DTD SVG 20010904//EN"
 "http://www.w3.org/TR/2001/REC-SVG-20010904/DTD/svg10.dtd">
<svg version="1.0" xmlns="http://www.w3.org/2000/svg"
 width="700.000000pt" height="700.000000pt" viewBox="0 0 700.000000 700.000000"
 preserveAspectRatio="xMidYMid meet">
<metadata>
Created by potrace 1.14, written by Peter Selinger 2001-2017
</metadata>
<g transform="translate(0.000000,700.000000) scale(0.100000,-0.100000)"
fill="#000000" stroke="none">
<path d="M3298 6384 c-2 -1 -30 -5 -63 -8 -33 -3 -71 -8 -85 -11 -14 -2 -47
-7 -75 -10 -27 -3 -57 -8 -65 -10 -8 -2 -31 -6 -50 -9 -20 -3 -65 -12 -100
-21 -36 -9 -74 -18 -85 -20 -11 -3 -63 -17 -115 -33 -588 -179 -1108 -544
-1476 -1039 -140 -188 -302 -478 -354 -632 -44 -133 7 -258 133 -323 58 -30
166 -30 223 0 71 36 101 77 188 255 175 357 384 615 681 843 60 46 115 89 122
94 7 6 15 10 18 10 4 0 25 13 48 28 225 153 624 302 897 337 19 2 51 7 70 10
94 15 368 21 475 11 157 -16 202 -23 335 -53 683 -150 1273 -611 1588 -1240
62 -122 95 -201 133 -318 36 -109 77 -272 85 -340 4 -27 8 -53 10 -56 3 -6 8
-47 19 -159 11 -115 5 -367 -11 -480 -7 -53 -23 -152 -29 -180 -3 -14 -7 -37
-10 -51 -3 -14 -16 -66 -30 -115 -181 -633 -604 -1154 -1180 -1455 -242 -126
-506 -212 -750 -245 -27 -3 -59 -8 -70 -11 -11 -3 -117 -7 -235 -8 -234 -4
-326 4 -529 45 -438 91 -865 324 -1187 648 -195 196 -331 391 -462 662 -79
164 -97 189 -164 225 -68 37 -171 41 -233 8 -92 -49 -145 -128 -150 -226 -3
-65 12 -108 101 -292 197 -406 522 -787 904 -1061 71 -51 136 -92 290 -184 8
-5 62 -32 120 -61 528 -258 1113 -349 1698 -263 752 110 1437 523 1895 1141
289 391 462 819 541 1343 26 174 27 555 1 730 -2 14 -7 45 -10 70 -47 355
-199 766 -407 1101 -232 372 -572 709 -940 932 -325 197 -724 343 -1068 391
-75 10 -136 19 -170 22 -39 5 -469 12 -472 8z"/>
<path d="M3435 5512 c-102 -5 -265 -24 -325 -38 -14 -3 -36 -8 -50 -10 -146
-27 -429 -138 -585 -231 -148 -89 -267 -182 -400 -317 -333 -335 -526 -744
-579 -1225 -8 -69 -8 -309 -1 -381 17 -164 96 -495 126 -524 5 -6 9 -17 9 -25
0 -28 119 -258 187 -361 88 -132 136 -193 237 -298 223 -232 506 -408 828
-516 55 -19 231 -62 286 -71 23 -4 54 -9 70 -12 71 -13 451 -11 537 3 453 72
811 249 1133 558 184 177 376 463 452 673 64 176 -59 353 -246 353 -116 0
-200 -65 -259 -200 -69 -157 -183 -320 -315 -450 -223 -219 -499 -358 -820
-411 -91 -15 -353 -16 -435 -1 -128 24 -170 34 -245 58 -537 179 -919 628
-1010 1189 -23 140 -16 405 13 530 79 333 234 599 470 807 362 319 847 443
1324 338 27 -6 95 -27 153 -46 273 -93 523 -277 702 -515 60 -80 63 -88 36
-98 -98 -38 -137 -54 -163 -65 -16 -8 -207 -87 -423 -176 l-393 -163 -54 27
c-116 56 -259 57 -386 2 -38 -16 -125 -79 -147 -105 -80 -100 -114 -182 -118
-291 -4 -93 8 -145 48 -226 127 -255 465 -331 689 -155 56 43 114 121 141 187
11 27 23 56 27 64 4 8 118 60 252 116 134 55 267 111 294 122 28 12 106 44
175 72 69 28 139 57 155 65 17 7 93 39 170 70 269 108 313 135 358 220 16 31
21 58 21 115 0 70 -4 82 -55 190 -31 63 -75 147 -99 185 -161 263 -405 507
-671 672 -267 166 -613 275 -919 289 -63 3 -122 6 -130 7 -8 1 -37 1 -65 -1z"/>
</g>
</svg>
